<svg viewBox="148.1081 184.4221 167.2339 42.3191" width="167.234" height="42.319" xmlns="http://www.w3.org/2000/svg">
  <g id="SvgjsG2382" featurekey="PG4fjM-0" transform="matrix(2.19535493850708, 0, 0, 2.19535493850708, 148.10809117511693, 168.8776373912969)" fill="#3b3c98" style="">
    <g transform="translate(-270 -140)" id="g11">
      <g id="g9">
        <path d="M279,161c-0.736,0-1.375,0.405-1.722,1c-0.172,0.295-0.278,0.635-0.278,1c0,1.102,0.897,2,2,2c1.103,0,2-0.898,2-2    c0-0.365-0.105-0.705-0.278-1C280.375,161.405,279.737,161,279,161z" id="path3" style="fill: rgb(43, 89, 255);"/>
        <path d="M293,161c-0.736,0-1.375,0.405-1.722,1c-0.172,0.295-0.278,0.635-0.278,1c0,1.102,0.897,2,2,2c1.103,0,2-0.898,2-2    c0-0.365-0.105-0.705-0.278-1C294.375,161.405,293.737,161,293,161z" id="path5" style="fill: rgb(43, 89, 255);"/>
        <path d="M299,159v-1l-6-1.715L286,152h-11v1h6v1h-11v1h12v1h-10v1h5v1h-2v1h-4v1h5v1h-1v1h-3v1h4c0-0.352,0.072-0.686,0.184-1    c0.414-1.162,1.512-2,2.816-2c1.305,0,2.402,0.838,2.816,2c0.111,0.314,0.184,0.648,0.184,1h8c0-0.352,0.072-0.686,0.184-1    c0.414-1.162,1.512-2,2.816-2c1.305,0,2.402,0.838,2.816,2c0.111,0.314,0.184,0.648,0.184,1h3v-1h1v-3H299z" id="path7" style="fill: rgb(43, 89, 255);"/>
      </g>
    </g>
  </g>
  <text style="fill: rgb(51, 51, 51); font-family: Arial, sans-serif; font-size: 18.7px; font-weight: 800; letter-spacing: -1px; stroke-opacity: 0.8; white-space: pre; opacity: 0.8;" transform="matrix(1.1783319711685183, 0, 0, 1.178331971168518, 55.74095838218114, -95.05590686394206)"><tspan style="fill: rgb(0, 0, 0);" x="136.896" y="258.017">99</tspan><tspan style="fill: rgb(0, 55, 255);">Cents.</tspan><tspan x="136.89599609375" dy="0.6em">​</tspan><tspan style="font-size: 10.7px; word-spacing: -1px;">                                 </tspan><tspan style="fill: rgb(0, 0, 0); font-size: 13.7px; word-spacing: -1px;">Cars</tspan></text>
</svg>